<mxfile host="app.diagrams.net" modified="2023-06-29T03:40:30.892Z" agent="Mozilla/5.0 (Windows NT 10.0; Win64; x64) AppleWebKit/537.36 (KHTML, like Gecko) Chrome/114.0.0.0 Safari/537.36" etag="2YkGMK_jxhpKI7DdAOyp" version="21.5.1" type="github">
  <diagram name="PÃ¡gina-1" id="SRd3oAynorppFmsBYYN7">
    <mxGraphModel dx="1183" dy="592" grid="1" gridSize="10" guides="1" tooltips="1" connect="1" arrows="1" fold="1" page="1" pageScale="1" pageWidth="827" pageHeight="1169" math="0" shadow="0">
      <root>
        <mxCell id="0" />
        <mxCell id="1" parent="0" />
        <mxCell id="0un2Plr5lw4UfMRJ4hNn-16" style="edgeStyle=orthogonalEdgeStyle;rounded=0;orthogonalLoop=1;jettySize=auto;html=1;exitX=1;exitY=0.5;exitDx=0;exitDy=0;entryX=0;entryY=0.5;entryDx=0;entryDy=0;endArrow=ERmany;endFill=0;startArrow=ERone;startFill=0;" edge="1" parent="1" source="0un2Plr5lw4UfMRJ4hNn-54" target="0un2Plr5lw4UfMRJ4hNn-56">
          <mxGeometry relative="1" as="geometry">
            <mxPoint x="210" y="140" as="sourcePoint" />
            <mxPoint x="270" y="140" as="targetPoint" />
          </mxGeometry>
        </mxCell>
        <mxCell id="0un2Plr5lw4UfMRJ4hNn-19" style="edgeStyle=orthogonalEdgeStyle;rounded=0;orthogonalLoop=1;jettySize=auto;html=1;exitX=1;exitY=0.5;exitDx=0;exitDy=0;entryX=0.25;entryY=0;entryDx=0;entryDy=0;endArrow=ERmany;endFill=0;startArrow=ERone;startFill=0;" edge="1" parent="1" source="0un2Plr5lw4UfMRJ4hNn-56" target="0un2Plr5lw4UfMRJ4hNn-60">
          <mxGeometry relative="1" as="geometry">
            <mxPoint x="370" y="140" as="sourcePoint" />
            <mxPoint x="415" y="210" as="targetPoint" />
          </mxGeometry>
        </mxCell>
        <mxCell id="0un2Plr5lw4UfMRJ4hNn-18" style="edgeStyle=orthogonalEdgeStyle;rounded=0;orthogonalLoop=1;jettySize=auto;html=1;exitX=0;exitY=0.5;exitDx=0;exitDy=0;entryX=0.75;entryY=0;entryDx=0;entryDy=0;endArrow=ERmany;fontSize=12;endFill=0;" edge="1" parent="1" source="0un2Plr5lw4UfMRJ4hNn-58" target="0un2Plr5lw4UfMRJ4hNn-60">
          <mxGeometry relative="1" as="geometry">
            <mxPoint x="510" y="140" as="sourcePoint" />
            <mxPoint x="465" y="210" as="targetPoint" />
          </mxGeometry>
        </mxCell>
        <mxCell id="0un2Plr5lw4UfMRJ4hNn-20" style="edgeStyle=orthogonalEdgeStyle;rounded=0;orthogonalLoop=1;jettySize=auto;html=1;exitX=0.5;exitY=1;exitDx=0;exitDy=0;entryX=0.5;entryY=0;entryDx=0;entryDy=0;endArrow=ERmany;fontSize=12;endFill=0;" edge="1" parent="1" target="0un2Plr5lw4UfMRJ4hNn-62">
          <mxGeometry relative="1" as="geometry">
            <mxPoint x="440" y="250" as="sourcePoint" />
            <mxPoint x="440" y="295" as="targetPoint" />
          </mxGeometry>
        </mxCell>
        <mxCell id="0un2Plr5lw4UfMRJ4hNn-22" value="" style="shape=table;startSize=0;container=1;collapsible=1;childLayout=tableLayout;fixedRows=1;rowLines=0;fontStyle=0;align=center;resizeLast=1;strokeColor=none;fillColor=none;collapsible=0;fontFamily=Helvetica;fontSize=12;fontColor=default;" vertex="1" parent="1">
          <mxGeometry x="500" y="295" width="140" height="30" as="geometry" />
        </mxCell>
        <mxCell id="0un2Plr5lw4UfMRJ4hNn-23" value="" style="shape=tableRow;horizontal=0;startSize=0;swimlaneHead=0;swimlaneBody=0;fillColor=none;collapsible=0;dropTarget=0;points=[[0,0.5],[1,0.5]];portConstraint=eastwest;top=0;left=0;right=0;bottom=1;fontFamily=Helvetica;fontSize=12;fontColor=default;" vertex="1" parent="0un2Plr5lw4UfMRJ4hNn-22">
          <mxGeometry width="140" height="30" as="geometry" />
        </mxCell>
        <mxCell id="0un2Plr5lw4UfMRJ4hNn-24" value="PK" style="shape=partialRectangle;connectable=0;fillColor=none;top=0;left=0;bottom=0;right=0;fontStyle=1;overflow=hidden;whiteSpace=wrap;html=1;fontFamily=Helvetica;fontSize=12;fontColor=default;" vertex="1" parent="0un2Plr5lw4UfMRJ4hNn-23">
          <mxGeometry width="30" height="30" as="geometry">
            <mxRectangle width="30" height="30" as="alternateBounds" />
          </mxGeometry>
        </mxCell>
        <mxCell id="0un2Plr5lw4UfMRJ4hNn-25" value="NroTransaccion" style="shape=partialRectangle;connectable=0;fillColor=none;top=0;left=0;bottom=0;right=0;align=left;spacingLeft=6;fontStyle=5;overflow=hidden;whiteSpace=wrap;html=1;fontFamily=Helvetica;fontSize=12;fontColor=default;" vertex="1" parent="0un2Plr5lw4UfMRJ4hNn-23">
          <mxGeometry x="30" width="110" height="30" as="geometry">
            <mxRectangle width="110" height="30" as="alternateBounds" />
          </mxGeometry>
        </mxCell>
        <mxCell id="0un2Plr5lw4UfMRJ4hNn-34" value="" style="shape=table;startSize=0;container=1;collapsible=1;childLayout=tableLayout;fixedRows=1;rowLines=0;fontStyle=0;align=center;resizeLast=1;strokeColor=none;fillColor=none;collapsible=0;fontFamily=Helvetica;fontSize=12;fontColor=default;" vertex="1" parent="1">
          <mxGeometry x="95" y="90" width="130" height="30" as="geometry" />
        </mxCell>
        <mxCell id="0un2Plr5lw4UfMRJ4hNn-35" value="" style="shape=tableRow;horizontal=0;startSize=0;swimlaneHead=0;swimlaneBody=0;fillColor=none;collapsible=0;dropTarget=0;points=[[0,0.5],[1,0.5]];portConstraint=eastwest;top=0;left=0;right=0;bottom=1;fontFamily=Helvetica;fontSize=12;fontColor=default;" vertex="1" parent="0un2Plr5lw4UfMRJ4hNn-34">
          <mxGeometry width="130" height="20" as="geometry" />
        </mxCell>
        <mxCell id="0un2Plr5lw4UfMRJ4hNn-36" value="PK" style="shape=partialRectangle;connectable=0;fillColor=none;top=0;left=0;bottom=0;right=0;fontStyle=1;overflow=hidden;whiteSpace=wrap;html=1;fontFamily=Helvetica;fontSize=12;fontColor=default;" vertex="1" parent="0un2Plr5lw4UfMRJ4hNn-35">
          <mxGeometry width="30" height="20" as="geometry">
            <mxRectangle width="30" height="20" as="alternateBounds" />
          </mxGeometry>
        </mxCell>
        <mxCell id="0un2Plr5lw4UfMRJ4hNn-37" value="CodSucursal_S" style="shape=partialRectangle;connectable=0;fillColor=none;top=0;left=0;bottom=0;right=0;align=left;spacingLeft=6;fontStyle=5;overflow=hidden;whiteSpace=wrap;html=1;fontFamily=Helvetica;fontSize=12;fontColor=default;" vertex="1" parent="0un2Plr5lw4UfMRJ4hNn-35">
          <mxGeometry x="30" width="100" height="20" as="geometry">
            <mxRectangle width="100" height="20" as="alternateBounds" />
          </mxGeometry>
        </mxCell>
        <mxCell id="0un2Plr5lw4UfMRJ4hNn-38" value="" style="shape=table;startSize=0;container=1;collapsible=1;childLayout=tableLayout;fixedRows=1;rowLines=0;fontStyle=0;align=center;resizeLast=1;strokeColor=none;fillColor=none;collapsible=0;fontFamily=Helvetica;fontSize=12;fontColor=default;" vertex="1" parent="1">
          <mxGeometry x="245" y="85" width="150" height="40" as="geometry" />
        </mxCell>
        <mxCell id="0un2Plr5lw4UfMRJ4hNn-39" value="" style="shape=tableRow;horizontal=0;startSize=0;swimlaneHead=0;swimlaneBody=0;fillColor=none;collapsible=0;dropTarget=0;points=[[0,0.5],[1,0.5]];portConstraint=eastwest;top=0;left=0;right=0;bottom=1;fontFamily=Helvetica;fontSize=12;fontColor=default;" vertex="1" parent="0un2Plr5lw4UfMRJ4hNn-38">
          <mxGeometry width="150" height="30" as="geometry" />
        </mxCell>
        <mxCell id="0un2Plr5lw4UfMRJ4hNn-40" value="PK" style="shape=partialRectangle;connectable=0;fillColor=none;top=0;left=0;bottom=0;right=0;fontStyle=1;overflow=hidden;whiteSpace=wrap;html=1;fontFamily=Helvetica;fontSize=12;fontColor=default;" vertex="1" parent="0un2Plr5lw4UfMRJ4hNn-39">
          <mxGeometry width="30" height="30" as="geometry">
            <mxRectangle width="30" height="30" as="alternateBounds" />
          </mxGeometry>
        </mxCell>
        <mxCell id="0un2Plr5lw4UfMRJ4hNn-41" value="CodCuenta_C&lt;br&gt;CodSucursal_C" style="shape=partialRectangle;connectable=0;fillColor=none;top=0;left=0;bottom=0;right=0;align=left;spacingLeft=6;fontStyle=5;overflow=hidden;whiteSpace=wrap;html=1;fontFamily=Helvetica;fontSize=12;fontColor=default;" vertex="1" parent="0un2Plr5lw4UfMRJ4hNn-39">
          <mxGeometry x="30" width="120" height="30" as="geometry">
            <mxRectangle width="120" height="30" as="alternateBounds" />
          </mxGeometry>
        </mxCell>
        <mxCell id="0un2Plr5lw4UfMRJ4hNn-42" value="" style="shape=table;startSize=0;container=1;collapsible=1;childLayout=tableLayout;fixedRows=1;rowLines=0;fontStyle=0;align=center;resizeLast=1;strokeColor=none;fillColor=none;collapsible=0;fontFamily=Helvetica;fontSize=12;fontColor=default;" vertex="1" parent="1">
          <mxGeometry x="610" y="125" width="100" height="30" as="geometry" />
        </mxCell>
        <mxCell id="0un2Plr5lw4UfMRJ4hNn-43" value="" style="shape=tableRow;horizontal=0;startSize=0;swimlaneHead=0;swimlaneBody=0;fillColor=none;collapsible=0;dropTarget=0;points=[[0,0.5],[1,0.5]];portConstraint=eastwest;top=0;left=0;right=0;bottom=1;fontFamily=Helvetica;fontSize=12;fontColor=default;" vertex="1" parent="0un2Plr5lw4UfMRJ4hNn-42">
          <mxGeometry width="100" height="30" as="geometry" />
        </mxCell>
        <mxCell id="0un2Plr5lw4UfMRJ4hNn-44" value="PK" style="shape=partialRectangle;connectable=0;fillColor=none;top=0;left=0;bottom=0;right=0;fontStyle=1;overflow=hidden;whiteSpace=wrap;html=1;fontFamily=Helvetica;fontSize=12;fontColor=default;" vertex="1" parent="0un2Plr5lw4UfMRJ4hNn-43">
          <mxGeometry width="30" height="30" as="geometry">
            <mxRectangle width="30" height="30" as="alternateBounds" />
          </mxGeometry>
        </mxCell>
        <mxCell id="0un2Plr5lw4UfMRJ4hNn-45" value="DNI_CLI" style="shape=partialRectangle;connectable=0;fillColor=none;top=0;left=0;bottom=0;right=0;align=left;spacingLeft=6;fontStyle=5;overflow=hidden;whiteSpace=wrap;html=1;fontFamily=Helvetica;fontSize=12;fontColor=default;" vertex="1" parent="0un2Plr5lw4UfMRJ4hNn-43">
          <mxGeometry x="30" width="70" height="30" as="geometry">
            <mxRectangle width="70" height="30" as="alternateBounds" />
          </mxGeometry>
        </mxCell>
        <mxCell id="0un2Plr5lw4UfMRJ4hNn-46" value="" style="shape=table;startSize=0;container=1;collapsible=1;childLayout=tableLayout;fixedRows=1;rowLines=0;fontStyle=0;align=center;resizeLast=1;strokeColor=none;fillColor=none;collapsible=0;fontFamily=Helvetica;fontSize=12;fontColor=default;" vertex="1" parent="1">
          <mxGeometry x="515" y="200" width="185" height="60" as="geometry" />
        </mxCell>
        <mxCell id="0un2Plr5lw4UfMRJ4hNn-47" value="" style="shape=tableRow;horizontal=0;startSize=0;swimlaneHead=0;swimlaneBody=0;fillColor=none;collapsible=0;dropTarget=0;points=[[0,0.5],[1,0.5]];portConstraint=eastwest;top=0;left=0;right=0;bottom=1;fontFamily=Helvetica;fontSize=12;fontColor=default;" vertex="1" parent="0un2Plr5lw4UfMRJ4hNn-46">
          <mxGeometry width="185" height="50" as="geometry" />
        </mxCell>
        <mxCell id="0un2Plr5lw4UfMRJ4hNn-48" value="PK" style="shape=partialRectangle;connectable=0;fillColor=none;top=0;left=0;bottom=0;right=0;fontStyle=1;overflow=hidden;whiteSpace=wrap;html=1;fontFamily=Helvetica;fontSize=12;fontColor=default;" vertex="1" parent="0un2Plr5lw4UfMRJ4hNn-47">
          <mxGeometry width="30" height="50" as="geometry">
            <mxRectangle width="30" height="50" as="alternateBounds" />
          </mxGeometry>
        </mxCell>
        <mxCell id="0un2Plr5lw4UfMRJ4hNn-49" value="DNI_CxC&lt;br&gt;CodSucursal_CxC&lt;br&gt;CodCuenta_CxC" style="shape=partialRectangle;connectable=0;fillColor=none;top=0;left=0;bottom=0;right=0;align=left;spacingLeft=6;fontStyle=5;overflow=hidden;whiteSpace=wrap;html=1;fontFamily=Helvetica;fontSize=12;fontColor=default;" vertex="1" parent="0un2Plr5lw4UfMRJ4hNn-47">
          <mxGeometry x="30" width="155" height="50" as="geometry">
            <mxRectangle width="155" height="50" as="alternateBounds" />
          </mxGeometry>
        </mxCell>
        <mxCell id="0un2Plr5lw4UfMRJ4hNn-54" value="Sucursales" style="swimlane;childLayout=stackLayout;horizontal=1;startSize=50;horizontalStack=0;rounded=1;fontSize=14;fontStyle=0;strokeWidth=2;resizeParent=0;resizeLast=1;shadow=0;dashed=0;align=center;arcSize=4;whiteSpace=wrap;html=1;fontFamily=Helvetica;fontColor=default;" vertex="1" collapsed="1" parent="1">
          <mxGeometry x="105" y="115" width="110" height="50" as="geometry">
            <mxRectangle x="105" y="115" width="160" height="120" as="alternateBounds" />
          </mxGeometry>
        </mxCell>
        <mxCell id="0un2Plr5lw4UfMRJ4hNn-55" value="PK &lt;u&gt;Cod_Sucursal_S&lt;/u&gt;&lt;br&gt;Direccion_S" style="align=left;strokeColor=none;fillColor=none;spacingLeft=4;fontSize=12;verticalAlign=top;resizable=0;rotatable=0;part=1;html=1;fontFamily=Helvetica;fontColor=default;" vertex="1" parent="0un2Plr5lw4UfMRJ4hNn-54">
          <mxGeometry y="50" width="160" height="70" as="geometry" />
        </mxCell>
        <mxCell id="0un2Plr5lw4UfMRJ4hNn-56" value="Cuentas" style="swimlane;childLayout=stackLayout;horizontal=1;startSize=50;horizontalStack=0;rounded=1;fontSize=14;fontStyle=0;strokeWidth=2;resizeParent=0;resizeLast=1;shadow=0;dashed=0;align=center;arcSize=4;whiteSpace=wrap;html=1;fontFamily=Helvetica;fontColor=default;" vertex="1" collapsed="1" parent="1">
          <mxGeometry x="280" y="115" width="80" height="50" as="geometry">
            <mxRectangle x="280" y="115" width="160" height="120" as="alternateBounds" />
          </mxGeometry>
        </mxCell>
        <mxCell id="0un2Plr5lw4UfMRJ4hNn-57" value="PK &lt;u&gt;CodCuenta_C&lt;/u&gt;&lt;br&gt;PK &lt;u&gt;CodSucursal_C&lt;/u&gt;&lt;br&gt;Tipo_C&lt;br&gt;Saldo_C" style="align=left;strokeColor=none;fillColor=none;spacingLeft=4;fontSize=12;verticalAlign=top;resizable=0;rotatable=0;part=1;html=1;fontFamily=Helvetica;fontColor=default;" vertex="1" parent="0un2Plr5lw4UfMRJ4hNn-56">
          <mxGeometry y="50" width="160" height="70" as="geometry" />
        </mxCell>
        <mxCell id="0un2Plr5lw4UfMRJ4hNn-58" value="Clientes" style="swimlane;childLayout=stackLayout;horizontal=1;startSize=50;horizontalStack=0;rounded=1;fontSize=14;fontStyle=0;strokeWidth=2;resizeParent=0;resizeLast=1;shadow=0;dashed=0;align=center;arcSize=4;whiteSpace=wrap;html=1;fontFamily=Helvetica;fontColor=default;" vertex="1" collapsed="1" parent="1">
          <mxGeometry x="520" y="115" width="90" height="50" as="geometry">
            <mxRectangle x="520" y="115" width="160" height="120" as="alternateBounds" />
          </mxGeometry>
        </mxCell>
        <mxCell id="0un2Plr5lw4UfMRJ4hNn-59" value="PK &lt;u&gt;DNI_CLI&lt;/u&gt;&lt;br&gt;Nombre_CLI&lt;br&gt;Apellido_CLI&lt;br&gt;Direccion_CLI" style="align=left;strokeColor=none;fillColor=none;spacingLeft=4;fontSize=12;verticalAlign=top;resizable=0;rotatable=0;part=1;html=1;fontFamily=Helvetica;fontColor=default;" vertex="1" parent="0un2Plr5lw4UfMRJ4hNn-58">
          <mxGeometry y="50" width="160" height="70" as="geometry" />
        </mxCell>
        <mxCell id="0un2Plr5lw4UfMRJ4hNn-60" value="CuentasXClientes" style="swimlane;childLayout=stackLayout;horizontal=1;startSize=50;horizontalStack=0;rounded=1;fontSize=14;fontStyle=0;strokeWidth=2;resizeParent=0;resizeLast=1;shadow=0;dashed=0;align=center;arcSize=4;whiteSpace=wrap;html=1;fontFamily=Helvetica;fontColor=default;" vertex="1" collapsed="1" parent="1">
          <mxGeometry x="377.5" y="200" width="125" height="50" as="geometry">
            <mxRectangle x="365" y="210" width="160" height="120" as="alternateBounds" />
          </mxGeometry>
        </mxCell>
        <mxCell id="0un2Plr5lw4UfMRJ4hNn-61" value="PK &lt;u&gt;DNI_CC&lt;/u&gt;&lt;br&gt;PK &lt;u&gt;CodCuenta_CC&lt;/u&gt;&lt;br&gt;PK &lt;u&gt;CodSucursal_CC&lt;/u&gt;" style="align=left;strokeColor=none;fillColor=none;spacingLeft=4;fontSize=12;verticalAlign=top;resizable=0;rotatable=0;part=1;html=1;fontFamily=Helvetica;fontColor=default;" vertex="1" parent="0un2Plr5lw4UfMRJ4hNn-60">
          <mxGeometry y="50" width="160" height="70" as="geometry" />
        </mxCell>
        <mxCell id="0un2Plr5lw4UfMRJ4hNn-62" value="Transacciones" style="swimlane;childLayout=stackLayout;horizontal=1;startSize=50;horizontalStack=0;rounded=1;fontSize=14;fontStyle=0;strokeWidth=2;resizeParent=0;resizeLast=1;shadow=0;dashed=0;align=center;arcSize=4;whiteSpace=wrap;html=1;fontFamily=Helvetica;fontColor=default;" vertex="1" collapsed="1" parent="1">
          <mxGeometry x="375" y="295" width="130" height="50" as="geometry">
            <mxRectangle x="375" y="295" width="105" height="160" as="alternateBounds" />
          </mxGeometry>
        </mxCell>
        <mxCell id="0un2Plr5lw4UfMRJ4hNn-63" value="PK &lt;u&gt;NroTransaccion_T&lt;/u&gt;&lt;br&gt;DNI_T&lt;br&gt;CodCuenta_T&lt;br&gt;CodSucursal_T&lt;br&gt;Fecha_T&lt;br&gt;Tipo_Trans_T&lt;br&gt;Monto_T" style="align=left;strokeColor=none;fillColor=none;spacingLeft=4;fontSize=12;verticalAlign=top;resizable=0;rotatable=0;part=1;html=1;fontFamily=Helvetica;fontColor=default;" vertex="1" parent="0un2Plr5lw4UfMRJ4hNn-62">
          <mxGeometry y="50" width="105" height="110" as="geometry" />
        </mxCell>
      </root>
    </mxGraphModel>
  </diagram>
</mxfile>
